<svg width="120" height="120" viewBox="0 0 120 120" fill="none" xmlns="http://www.w3.org/2000/svg"><path fill="#023184" d="M0 0h120v120H0z"/><path d="M58.997 20.219c1.586-.745 3.08.588 4.382 1.336 11.405 7.681 23.034 15.026 34.436 22.706 3.069 2.102 2.853 7.175-.319 9.082-11.966 7.897-24.017 15.67-35.962 23.6-.84.563-2.019.595-2.877.056-11.516-7.54-23.049-15.054-34.575-22.575-1.806-1.142-3.97-2.563-4.002-4.952-.475-2.513 1.235-4.824 3.303-6.047 11.906-7.685 23.602-15.692 35.614-23.206zm13.236 15.309c1.902 3.07 3.928 6.06 5.73 9.194 2.136.139 4.275.124 6.41.018-4.1-2.999-8.344-5.824-12.14-9.212zm-36.618 9.216c2.093.067 4.193.173 6.283-.011 1.976-2.92 3.782-5.951 5.814-8.833-4.016 2.97-7.985 6.008-12.097 8.844zm14.79.056c1.926.01 3.853.007 5.78.004-.012-2.917-.015-5.835-.026-8.752-1.738 3.03-3.757 5.884-5.754 8.748zm13.555-8.475a270.464 270.464 0 000 8.479c1.849.003 3.697.003 5.545 0-1.84-2.832-3.696-5.654-5.545-8.479zM35.626 52.506c4.076 3.01 8.127 6.05 12.204 9.06-2.14-2.914-4.027-6-5.96-9.05-2.083-.013-4.165 0-6.244-.01zm14.765.004c1.98 2.934 3.984 5.855 5.818 8.886-.036-2.96-.029-5.923-.004-8.883-1.94-.003-3.877 0-5.814-.003zm13.59-.022c-.067 2.882-.06 5.764-.042 8.645 1.848-2.899 3.746-5.766 5.662-8.62-1.873.01-3.746-.039-5.62-.025zm14.432.015c-2.231 2.988-4.14 6.192-6.112 9.354 3.81-3.47 8.131-6.303 12.271-9.354-2.054.01-4.105.014-6.159 0z" fill="#fff"/><path d="M20.155 59.891c.12-1.741 2.34-2.958 3.85-2.036 3.387 1.827 6.425 4.204 9.662 6.272 8.772 5.736 17.327 11.798 26.251 17.296 1.674-.808 3.251-1.798 4.794-2.83 9.92-6.64 19.83-13.3 29.771-19.904 1.18-.805 2.596-1.291 4.035-1.071 1.482.226 1.482 1.22 1.482 1.99 0 11.567-.067 23.135-.004 34.7-.056 2.784-2.478 5.462-5.35 5.37-23.038.01-46.08.02-69.12-.004-2.013.195-3.733-1.206-4.76-2.802-.703-1.079-.572-2.409-.586-3.633-.01-11.113-.032-22.23-.025-33.348zm45.88 27.8c-1.405.81-2.749 1.845-4.39 2.108-2.33.404-4.74-.27-6.723-1.512A5364.388 5364.388 0 0031.77 73.875c-.744-.45-1.531-1.043-2.46-.795-.124 5.839-.025 11.681-.078 17.52 1.095.288 2.22.49 3.354.458 19.33-.025 38.656.05 57.983-.1.521-3.231.34-6.516.362-9.776-.015-2.823.18-5.679-.387-8.467-8.37 4.657-16.288 10.07-24.51 14.976z" fill="#fff"/></svg>